<?xml version="1.0" encoding="utf-8"?>
<!-- Generator: Adobe Illustrator 25.4.1, SVG Export Plug-In . SVG Version: 6.00 Build 0)  -->
<svg version="1.1" id="Layer_1" xmlns="http://www.w3.org/2000/svg" xmlns:xlink="http://www.w3.org/1999/xlink" x="0px" y="0px"
	 viewBox="0 0 612 792" style="enable-background:new 0 0 612 792;" xml:space="preserve">
<style type="text/css">
	.st0{fill:none;stroke:#000000;stroke-width:77;stroke-miterlimit:10;}
	.st1{fill:#FFFFFF;}
	.st2{stroke:#000000;stroke-miterlimit:10;}
</style>
<g>
	<path class="st0" d="M292.57,401.89"/>
	<g>
		<g>
			<g>
				<path d="M368.75,400.45c-1.97,4.76-4.28,9.37-6.94,13.77c-2.17,3.59-4.84,8.74-9.32,9.72c-1.06,0.23,0.41,0.95,0.71,1.05
					c2.83,0.96,5.54,2.23,8.01,3.93c2.59,1.78,4.65,3.98,6.69,6.35c1.94,2.24,4.02,4.17,6.89,5.12c2.79,0.92,6.33,1.39,8.87-0.43
					c0.65-0.46-1.36-1.07-1.56-1.13c-0.75-0.2-2.37-0.66-3.11-0.13c-0.47,0.34-0.95,0.62-1.52,0.77c-0.49,0.12-0.81-0.02-0.34,0.17
					c-1.12-0.45-2.07-1.28-2.91-2.12c-1.8-1.81-3.31-3.89-5.19-5.63c-3.74-3.48-8.33-5.89-13.15-7.52c0.24,0.35,0.47,0.7,0.71,1.05
					c4.65-1.02,7.33-5.72,9.64-9.47c2.86-4.64,5.33-9.51,7.41-14.54C373.92,400.77,369.21,399.34,368.75,400.45L368.75,400.45z"/>
			</g>
		</g>
		<g>
			<g>
				<path d="M346.62,407.42c0.36-4.17-0.88-12.09-6.78-10.62c-2.62,0.66-4.84,2.1-5.76,4.71c-0.92,2.62-1.52,5.4-2.07,8.11
					c-1.15,5.66-1.89,11.48-2.09,17.25c-0.09,2.5,0.11,5.16,1.72,7.2c1.44,1.83,3.53,2.53,5.8,2.21
					c6.85-0.97,11.04-7.11,15.31-11.88c0.71-0.79-0.82-0.55-1.17-0.46c-1.01,0.25-2.34,0.74-3.06,1.55c-1.52,1.7-3.04,3.4-4.56,5.1
					c-0.7,0.78-1.38,1.57-2.13,2.29c-0.37,0.35-0.75,0.69-1.16,0.99c-0.37,0.27-0.13,0.18-0.53,0.21c-4.3,0.26-5.65-4.92-5.64-8.25
					c0.02-4.5,0.6-9.08,1.31-13.51c0.36-2.29,0.81-4.58,1.34-6.84c0.47-2,0.91-4.1,1.69-6.01c0.18-0.44,0.44-0.79,0.65-1.21
					c0.44-0.87-2.48,0.25-1.53,0.66c0.22,0.1,0.49,0.12,0.72,0.23c1.03,0.47,1.67,1.45,2.13,2.44c1.07,2.28,1.45,4.89,1.24,7.39
					c-0.07,0.76,1.58,0.16,1.92,0.05C344.48,408.86,346.55,408.18,346.62,407.42L346.62,407.42z"/>
			</g>
		</g>
	</g>
	<g>
		<g>
			<path d="M297.69,376.83c-2.91,17.5-5.94,35.31-13.84,51.37c-1.08,2.19-2.24,4.33-3.49,6.42c-1.17,1.96-2.3,4.29-4.4,5.37
				c-1.45,0.74,0.97,5.11,2.5,4.33c1.81-0.92,2.89-2.64,3.93-4.32c1.22-1.95,2.36-3.95,3.42-5.98c2.1-4.02,3.89-8.19,5.44-12.46
				c3.08-8.48,5.2-17.27,6.92-26.11c1-5.15,1.87-10.32,2.73-15.49c0.19-1.12-0.56-2.43-1.34-3.18
				C299.04,376.28,297.88,375.7,297.69,376.83L297.69,376.83z"/>
		</g>
	</g>
	<g>
		<g>
			<path d="M354.07,390.47c-1.3,16.53-2.67,33.31-8.14,49.08c-0.73,2.11-1.53,4.2-2.43,6.25c-0.71,1.62-1.42,4.18-2.94,5.22
				c-0.86,0.59-1.51,1.88-0.68,2.76c0.85,0.9,2.44,0.51,3.33-0.09c1.71-1.17,2.68-2.87,3.54-4.7c0.95-2.01,1.82-4.06,2.62-6.12
				c1.59-4.07,2.88-8.24,3.94-12.47c2.15-8.52,3.35-17.24,4.24-25.97c0.51-5,0.91-10.02,1.3-15.03c0.1-1.24-1.64-1.53-2.51-1.33
				C355.14,388.32,354.17,389.22,354.07,390.47L354.07,390.47z"/>
		</g>
	</g>
	<g>
		<g>
			<path d="M286.5,351.07c0.28,0.52,0.58,1.04,1,1.46c0.67,0.68,1.56,0.91,2.5,0.87c1.1-0.05,2.35-0.41,3.04-1.32
				c0.4-0.53,0.66-1.1,0.88-1.72c0.26-0.7-1.04-0.77-1.44-0.75c-0.48,0.03-0.98,0.1-1.42,0.3c-0.27,0.12-0.67,0.29-0.78,0.59
				c-0.19,0.52-0.4,1.05-0.72,1.51c0.05-0.07,0.11-0.14,0.16-0.21c-0.11,0.15-0.24,0.29-0.39,0.4c0.09-0.07,0.18-0.13,0.27-0.2
				c-0.07,0.05-0.31,0.18-0.02,0.04c0.22-0.11,0.45-0.19,0.78-0.23c-0.05,0.01,0.58-0.04,0.36-0.03c-0.04,0,0.52,0.03,0.32,0
				c0.01,0,0.44,0.11,0.23,0.03c-0.04-0.01-0.07-0.02-0.11-0.04c0.1,0.04,0.21,0.07,0.31,0.11c-0.14-0.05-0.26-0.13-0.38-0.21
				c0.07,0.05,0.14,0.1,0.21,0.16c-0.57-0.43-0.95-1.08-1.28-1.7c-0.13-0.23-0.72-0.31-0.92-0.33c-0.46-0.04-1,0.01-1.44,0.14
				c-0.36,0.11-0.8,0.24-1.05,0.52c-0.05,0.07-0.11,0.14-0.16,0.21C286.37,350.81,286.39,350.94,286.5,351.07L286.5,351.07z"/>
		</g>
	</g>
	<g>
		<g>
			<path d="M300.29,356.61c0.53,1.75,1.49,3.32,2.67,4.71c0.04,0.04,1.59,1.83,1.73,1.64c0.91-1.19,1.63-2.52,2.16-3.92
				c0.05-0.14-0.2-0.45-0.24-0.52c-0.24-0.36-0.53-0.71-0.83-1.04c-0.29-0.33-0.59-0.66-0.93-0.95c-0.04-0.04-0.45-0.39-0.48-0.3
				c-0.54,1.4-1.25,2.73-2.16,3.92c0.58,0.55,1.16,1.09,1.73,1.64c-0.06-0.07-0.11-0.14-0.17-0.2c0.39,0.46,0.2,0.25,0.12,0.14
				c-0.22-0.29,0.17,0.25,0.03,0.04c-0.04-0.06-0.08-0.11-0.11-0.17c-0.02-0.04-0.05-0.08-0.07-0.11c0.1,0.16,0.11,0.18,0.05,0.08
				c-0.03-0.06-0.07-0.12-0.11-0.18c-0.08-0.14-0.16-0.28-0.23-0.42c-0.03-0.06-0.06-0.12-0.09-0.19c-0.02-0.04-0.04-0.08-0.06-0.13
				c0.03,0.07,0.03,0.07-0.01-0.01c-0.07-0.15-0.13-0.3-0.19-0.45c-0.12-0.31-0.23-0.62-0.33-0.94c-0.08-0.25-0.32-0.54-0.47-0.74
				c-0.29-0.38-0.61-0.75-0.94-1.1c-0.25-0.27-0.51-0.56-0.82-0.77C300.5,356.6,300.23,356.4,300.29,356.61L300.29,356.61z"/>
		</g>
	</g>
	<g>
		<g>
			<path d="M288.99,364.14c0.81,2.37,1.8,4.68,3.01,6.88c0.32,0.59,0.73,1.18,1.35,1.47c0.18,0.08,0.37,0.14,0.56,0.07
				c0.24-0.08,0.3-0.26,0.36-0.5c0.35-1.51,0.52-3.06,0.49-4.61c-0.01-0.87-0.45-1.77-1.14-2.32c-0.25-0.2-0.58-0.46-0.93-0.42
				c-0.27,0.03-0.48,0.26-0.48,0.54c0.03,1.55-0.14,3.1-0.49,4.61c0.76,0.35,1.52,0.69,2.27,1.04c-0.55-1-1.06-2.03-1.53-3.08
				c-0.11-0.26-0.22-0.51-0.33-0.77c-0.06-0.15-0.13-0.29-0.18-0.45c0.03,0.07,0.05,0.13,0.08,0.2c-0.03-0.07-0.06-0.15-0.09-0.22
				c-0.22-0.57-0.43-1.14-0.62-1.71c-0.15-0.45-0.4-0.89-0.72-1.26c-0.22-0.26-0.61-0.63-0.96-0.71
				C288.85,362.72,288.8,363.57,288.99,364.14L288.99,364.14z"/>
		</g>
	</g>
	<g>
		<path d="M239.72,433.48c-3.66-7-5.76-16.12-1.07-22.49c1.33,1.83,3.15,3.31,5.23,4.26c1.99-12.91,4.23-26.43,12.37-36.81
			c3.35-4.27,7.55-7.82,11.3-11.76c4.48-4.72,8.31-10.03,11.35-15.73c2.4,5.07,4.82,10.2,5.85,15.68
			c1.04,5.48,0.56,11.44-2.53,16.12c-2.23,3.39-5.78,6.11-6.79,10.02c2.58,0.26,9.21-0.42,11.76-0.85
			c-7.33,5.14-17.07,13-20.26,21.22c3.86-2.44,11.88-1.26,16.2-2.82c-3.85,6.66-14.99,7.37-21,12.3
			c-5.35,4.39-12.86,9.75-16.19,15.73"/>
		<g>
			<path d="M240.12,433.34c-3.42-6.62-5.69-15.39-0.99-21.97c-0.3-0.08-0.59-0.16-0.89-0.24c1.49,1.98,3.35,3.53,5.59,4.59
				c0.23,0.11,0.52,0.09,0.57-0.21c1.44-9.35,2.95-18.86,6.87-27.55c2.02-4.48,4.71-8.54,8.05-12.15c3.43-3.7,7.26-7.01,10.59-10.81
				c3.67-4.19,6.84-8.79,9.47-13.69c-0.32-0.12-0.64-0.25-0.96-0.37c3.42,7.22,7.07,14.95,6.17,23.17c-0.41,3.73-1.8,7.1-4.16,10.02
				c-2.08,2.58-4.56,4.97-5.48,8.26c-0.12,0.43,0.27,0.88,0.69,0.91c3.88,0.35,8.05-0.23,11.88-0.87c-0.25-0.33-0.49-0.66-0.74-0.98
				c-4.15,2.92-8.19,6.05-11.83,9.6c-3.45,3.36-6.7,7.19-8.5,11.71c-0.18,0.46,0.46,1.11,0.9,0.84c2.42-1.45,5.52-1.52,8.25-1.7
				c2.61-0.17,5.35-0.2,7.85-1.06c-0.27-0.3-0.54-0.6-0.81-0.9c-2.99,4.99-9.48,6.53-14.5,8.63c-2.6,1.09-4.94,2.37-7.13,4.15
				c-2.73,2.21-5.52,4.36-8.15,6.69c-2.82,2.51-5.52,5.25-7.41,8.55c-0.26,0.45,0.67,1.28,0.97,0.75
				c3.49-6.11,9.62-10.39,14.99-14.72c2.34-1.88,4.75-3.29,7.53-4.45c2.71-1.12,5.49-2.07,8.12-3.37c2.6-1.29,5.03-2.95,6.55-5.49
				c0.24-0.39-0.41-1.03-0.81-0.9c-5.2,1.79-11.44-0.04-16.3,2.87c0.3,0.28,0.6,0.56,0.9,0.84c1.83-4.58,5.14-8.43,8.66-11.82
				c3.56-3.43,7.49-6.47,11.54-9.31c0.48-0.34-0.37-1.05-0.74-0.98c-3.75,0.62-7.85,1.18-11.65,0.84c0.23,0.3,0.46,0.61,0.69,0.91
				c1.01-3.61,3.89-6.08,6.06-8.99c2.16-2.9,3.35-6.33,3.68-9.92c0.75-8.27-2.85-16.01-6.29-23.29c-0.13-0.27-0.71-0.84-0.96-0.37
				c-2.46,4.58-5.38,8.89-8.76,12.84c-3.38,3.95-7.31,7.36-10.86,11.15c-6.49,6.9-10.21,15.36-12.45,24.48
				c-1.29,5.26-2.14,10.61-2.97,15.95c0.19-0.07,0.38-0.14,0.57-0.21c-1.93-0.92-3.59-2.21-4.88-3.93c-0.2-0.26-0.62-0.61-0.89-0.24
				c-4.92,6.88-2.41,16.12,1.15,23C239.63,434.22,240.5,434.07,240.12,433.34L240.12,433.34z"/>
		</g>
	</g>
	<g>
		<path class="st1" d="M275.19,367.66c-6.16,25.23-12.68,51.06-34.77,72.56c-1.46,1.42-3.11,2.88-5.82,3.57"/>
		<g>
			<path d="M268.3,369.9c-5.24,21.44-11.12,43.03-24.57,60.97c-1.94,2.59-4,5.07-6.2,7.43c-1.19,1.28-2.41,2.53-3.67,3.74
				c-0.16,0.15-0.32,0.3-0.48,0.45c-0.22,0.2-1.15,1.27-0.33,0.34c-0.14,0.16-0.42,0.26-0.58,0.4c1.33-1.18,3.48-1.72,5.13-2.17
				c-1.86,0.51-3.69,1.15-5.44,1.97c-1.26,0.59-2.86,1.36-3.89,2.36c-2.22,2.17,2.47,1.37,3.34,1.13
				c5.29-1.45,10.62-3.65,14.67-7.45c2.31-2.16,4.47-4.5,6.53-6.89c4.19-4.85,7.94-10.03,11.16-15.57
				c5.87-10.08,9.95-21.06,13.18-32.24c1.81-6.27,3.38-12.62,4.93-18.96c0.5-2.03-4.91-0.22-5.62,0.02
				c-1.82,0.61-3.65,1.32-5.31,2.28C270.35,368.16,268.53,368.96,268.3,369.9L268.3,369.9z"/>
		</g>
	</g>
	<g>
		<path class="st2" d="M320.76,396.8"/>
		<g>
			<g>
				<path d="M320.23,395.42c-3.19-1.22-6.75-0.1-9.18,2.16c-2.49,2.31-3.79,5.4-4.79,8.58c-2.23,7.06-3.51,14.59-2.66,21.99
					c0.3,2.61,0.88,5.44,3.26,6.96c2.59,1.66,5.9,1.18,8.55-0.08c6.01-2.87,8.04-9.5,9.22-15.53c0.79-4.01,1.53-8.05,1.56-12.15
					c0.03-3.56-0.29-7.96-2.96-10.62c-1.18-1.17-4.23,0.95-2.87,2.3c1.92,1.91,2.16,5.18,2.28,7.73c0.15,3.05-0.23,6.08-0.74,9.08
					c-0.85,4.96-1.49,10.76-4.91,14.71c-1.43,1.65-3.6,3.01-5.87,2.68c-2.18-0.31-3.3-2.17-3.69-4.17
					c-1.17-5.88-0.49-12.13,0.86-17.92c0.72-3.08,1.5-6.33,2.97-9.16c1.29-2.47,3.68-5.07,6.74-3.9
					C319.5,398.69,322.17,396.17,320.23,395.42L320.23,395.42z"/>
			</g>
		</g>
		<g>
			<g>
				<path d="M308.84,401.83c-0.86,4.78-1.33,9.63-2.05,14.43c-0.43,2.85-1.08,5.67-1.29,8.54c-0.18,2.52-0.36,6.17,2.25,7.57
					c2.09,1.12,5,0.57,7.03-0.41c2.54-1.22,4.1-3.65,5.34-6.09c2.79-5.49,3.65-11.68,3.88-17.77c0.07-1.78,0.08-3.57,0.08-5.35
					c0-1.6-0.03-3.17-1.09-4.46c-1.76-2.13-4.72-2.63-7.31-2.22c-0.25,0.04-1.42,0.24-1.44,0.59c-0.03,0.38,0.73,0.23,0.95,0.2
					c2.25-0.36,5.09,0.92,6.04,3.07c0.53,1.19,0.43,2.57,0.42,3.83c0,1.36-0.01,2.71-0.05,4.07c-0.15,5.37-0.72,10.82-2.71,15.86
					c-0.91,2.31-2.07,4.76-3.77,6.6c-1.01,1.1-2.3,1.99-3.86,1.73c-1.4-0.23-2.45-1.15-2.94-2.47c-0.88-2.35-0.47-5.29-0.13-7.7
					c0.32-2.28,0.79-4.53,1.12-6.81c0.67-4.6,1.13-9.23,1.95-13.81C311.3,401.05,308.97,401.14,308.84,401.83L308.84,401.83z"/>
			</g>
		</g>
		<g>
			<g>
				<path d="M309.38,435c1.35,0.21,2.7,0.27,4.06,0.24c0.25-0.01,0.55-0.21,0.68-0.42c0.14-0.23,0.16-0.55,0.06-0.8
					c-0.12-0.29-0.32-0.56-0.6-0.71c-0.29-0.16-0.57-0.22-0.91-0.21c-0.08,0-0.17,0-0.25,0.01c-0.09,0-0.05,0,0.12,0
					c-0.04,0-0.07,0-0.11,0c-0.16,0-0.32,0-0.47,0c-0.3-0.01-0.61-0.02-0.91-0.04c-0.62-0.04-1.23-0.11-1.84-0.2
					c-0.55-0.09-1.17,0.35-1.1,0.95C308.19,434.46,308.76,434.9,309.38,435L309.38,435z"/>
			</g>
		</g>
		<g>
			<g>
				<path d="M307.61,433.69c1.54,0.23,3.11,0.32,4.67,0.24c0.9-0.05,1.76-0.23,2.55-0.66c0.7-0.38,1.43-0.9,1.67-1.69
					c0.11-0.36-0.65-0.16-0.74-0.13c-1.24,0.41-2.51,0.69-3.8,0.84c-0.62,0.07-1.24,0.12-1.86,0.11c-0.42,0-0.95-0.03-1.21-0.41
					c-0.69,0.44-1.39,0.87-2.08,1.31c1.4,0.71,2.97,1.04,4.54,1.02c0.56-0.01,1.15-0.35,1.56-0.71c0.18-0.16,0.66-0.73,0.1-0.73
					c-1.47,0.02-2.9-0.3-4.22-0.97c-0.37-0.19-1.06,0.23-1.34,0.41c-0.18,0.11-0.94,0.6-0.74,0.9c0.32,0.47,0.92,0.58,1.45,0.61
					c0.74,0.05,1.5-0.03,2.23-0.11c1.57-0.16,3.12-0.5,4.63-1.01c-0.25-0.04-0.49-0.09-0.74-0.13c-0.01,0.03-0.05,0.11-0.05,0.11
					c0.1-0.1,0.27-0.16,0.37-0.26c0.05-0.05,0.06,0-0.04-0.01c-0.11-0.01-0.23,0.04-0.34,0.05c-0.53,0.05-1.08,0.05-1.61,0.04
					c-1.12-0.01-2.23-0.1-3.34-0.27c-0.22-0.03-0.56,0.12-0.75,0.2c-0.29,0.13-0.58,0.31-0.82,0.51
					C307.47,433.18,307.09,433.62,307.61,433.69L307.61,433.69z"/>
			</g>
		</g>
	</g>
	<g>
		<g>
			<path d="M311.4,336.94c-0.25,2.88-0.49,5.77-0.74,8.65c-0.03,0.4,1.58,0.54,1.83,0.56c0.44,0.04,0.89,0.08,1.33,0.04
				c0.13-0.01,0.55-0.02,0.57-0.2c0.18-1.27,0.39-2.54,0.64-3.81c0.12-0.6,0.24-1.2,0.37-1.8c0.05-0.22,0.18-1.42,0.47-1.49
				c-0.38,0.02-0.75,0.03-1.13,0.05c0.04,0,0.08,0,0.12,0.01c-0.48-0.06-0.95-0.13-1.43-0.19c-0.36-0.08,0.1,0.05,0.18,0.07
				c0.16,0.05,0.32,0.11,0.48,0.16c0.32,0.11,0.63,0.21,0.95,0.32c0.63,0.21,1.27,0.43,1.9,0.64c0.81,0.27,1.78,0.37,2.64,0.29
				c0.12-0.01,0.55-0.02,0.57-0.2c0.02-0.18-0.45-0.29-0.52-0.31c-1.11-0.37-2.22-0.75-3.33-1.12c-0.94-0.32-1.93-0.49-2.92-0.48
				c-0.65,0.01-1.2,0.07-1.43,0.73c-0.36,1.03-0.5,2.18-0.71,3.25c-0.22,1.15-0.41,2.31-0.58,3.48c1.24,0.13,2.49,0.27,3.73,0.4
				c0.25-2.88,0.49-5.77,0.74-8.65c0.03-0.4-1.58-0.54-1.83-0.56C313.08,336.76,311.43,336.55,311.4,336.94L311.4,336.94z"/>
		</g>
	</g>
</g>
</svg>
