<?xml version="1.0" encoding="utf-8"?>
<!-- Generator: Adobe Illustrator 25.4.1, SVG Export Plug-In . SVG Version: 6.00 Build 0)  -->
<svg version="1.1" id="Layer_1" xmlns="http://www.w3.org/2000/svg" xmlns:xlink="http://www.w3.org/1999/xlink" x="0px" y="0px"
	 viewBox="0 0 612 792" style="enable-background:new 0 0 612 792;" xml:space="preserve">
<style type="text/css">
	.st0{fill:none;stroke:#0088CA;stroke-width:77;stroke-miterlimit:10;}
	.st1{fill:#0088CA;}
	.st2{fill:#FFFFFF;}
	.st3{stroke:#0088CA;stroke-miterlimit:10;}
</style>
<g>
	<path class="st0" d="M293.05,402.44"/>
	<g>
		<g>
			<g>
				<path class="st1" d="M370.27,399.51c-2,4.83-4.34,9.5-7.06,13.96c-2.24,3.68-4.88,8.59-9.46,9.6c-0.65,0.14,0.32,2.09,0.42,2.27
					c0.42,0.78,1.01,1.76,1.9,2.06c5.44,1.85,10.19,4.83,13.94,9.2c2.99,3.48,8.1,8.97,13.07,5.42c1.02-0.73-1.67-4.93-2.55-4.3
					c-5.21,3.72-9.44-2.99-12.55-6.16c-3.91-3.99-8.74-6.74-14-8.53c0.77,1.45,1.54,2.89,2.31,4.34c4.56-1,7.25-5.93,9.5-9.59
					c2.81-4.58,5.24-9.38,7.29-14.35c0.36-0.86-0.6-2.28-1.08-2.94C371.82,400.23,370.61,398.7,370.27,399.51L370.27,399.51z"/>
			</g>
		</g>
		<g>
			<g>
				<path class="st1" d="M346.7,409.69c0.24-2.83-0.17-5.75-1.28-8.37c-1.02-2.42-2.91-5.03-5.76-5.28
					c-2.54-0.22-3.96,1.83-4.68,3.99c-0.92,2.74-1.55,5.59-2.11,8.42c-1.13,5.68-1.89,11.53-2.06,17.32
					c-0.14,4.84,1.77,11.35,7.39,12.24c3.06,0.48,5.75-1.21,7.84-3.26c2.37-2.31,4.49-4.92,6.69-7.39c1.36-1.52-1.62-5.48-3.23-3.68
					c-1.52,1.7-3.04,3.4-4.56,5.1c-1.36,1.52-2.71,3.11-4.55,4.07c-1.38,0.72-3.39,1.11-4.62-0.11c-1.07-1.06-1.18-2.79-1.19-4.2
					c-0.03-4.38,0.54-8.88,1.21-13.21c0.35-2.29,0.79-4.57,1.32-6.83c0.47-2.02,0.91-4.15,1.68-6.09c0.48-1.2,2.06-2.73,3.06-1.1
					c1.15,1.88,1.27,4.42,1.09,6.54c-0.1,1.17,0.8,2.53,1.83,3.03C345.79,411.36,346.61,410.78,346.7,409.69L346.7,409.69z"/>
			</g>
		</g>
	</g>
	<g>
		<g>
			<path class="st1" d="M297.41,379.77c-2.89,17.34-5.9,34.97-13.58,50.94c-1.13,2.36-2.36,4.67-3.7,6.92
				c-1.05,1.76-2.26,4.48-4.19,5.46c-0.74,0.38-0.68,0.56,0.14,0.4c1.12-0.22,2.32-0.63,3.34-1.16c1.85-0.94,2.94-2.31,4.03-4.04
				c1.17-1.85,2.27-3.75,3.31-5.68c2.17-4.07,4.03-8.3,5.63-12.62c3.13-8.48,5.25-17.29,6.98-26.15c1.02-5.22,1.9-10.46,2.77-15.71
				c0.03-0.16-2.29,0.47-2.46,0.53C299.26,378.82,297.5,379.23,297.41,379.77L297.41,379.77z"/>
		</g>
	</g>
	<g>
		<g>
			<path class="st1" d="M354.58,391.3c-1.32,16.77-2.68,33.81-8.27,49.8c-0.77,2.21-1.62,4.39-2.56,6.53
				c-0.84,1.93-1.67,4.6-3.49,5.85c-0.81,0.56,0.81,0.14,0.98,0.09c1.03-0.27,2.3-0.6,3.2-1.22c1.49-1.03,2.24-2.48,3-4.08
				c0.9-1.92,1.74-3.86,2.5-5.84c1.55-4,2.82-8.1,3.86-12.26c2.12-8.43,3.34-17.06,4.22-25.7c0.5-4.93,0.89-9.87,1.28-14.8
				c0.02-0.2-2.29,0.47-2.46,0.53C356.48,390.33,354.62,390.79,354.58,391.3L354.58,391.3z"/>
		</g>
	</g>
	<g>
		<g>
			<path class="st1" d="M286.98,351.62c0.28,0.52,0.58,1.04,1,1.46c0.67,0.68,1.56,0.91,2.5,0.87c1.1-0.05,2.35-0.41,3.04-1.32
				c0.4-0.53,0.66-1.1,0.88-1.72c0.26-0.7-1.04-0.77-1.44-0.75c-0.48,0.03-0.98,0.1-1.42,0.3c-0.27,0.12-0.67,0.29-0.78,0.59
				c-0.19,0.52-0.4,1.05-0.72,1.51c0.05-0.07,0.11-0.14,0.16-0.21c-0.11,0.15-0.24,0.29-0.39,0.4c0.09-0.07,0.18-0.13,0.27-0.2
				c-0.07,0.05-0.31,0.18-0.02,0.04c0.22-0.11,0.45-0.19,0.78-0.23c-0.05,0.01,0.58-0.04,0.36-0.03c-0.04,0,0.52,0.03,0.32,0
				c0.01,0,0.44,0.11,0.23,0.03c-0.04-0.01-0.07-0.02-0.11-0.04c0.1,0.04,0.21,0.07,0.31,0.11c-0.14-0.05-0.26-0.13-0.38-0.21
				c0.07,0.05,0.14,0.1,0.21,0.16c-0.57-0.43-0.95-1.08-1.28-1.7c-0.13-0.23-0.72-0.31-0.92-0.33c-0.46-0.04-1,0.01-1.44,0.14
				c-0.36,0.11-0.8,0.24-1.05,0.52c-0.05,0.07-0.11,0.14-0.16,0.21C286.85,351.36,286.87,351.5,286.98,351.62L286.98,351.62z"/>
		</g>
	</g>
	<g>
		<g>
			<path class="st1" d="M300.77,357.17c0.53,1.75,1.49,3.32,2.67,4.71c0.04,0.04,1.59,1.83,1.73,1.64c0.91-1.19,1.63-2.52,2.16-3.92
				c0.05-0.14-0.2-0.45-0.24-0.52c-0.24-0.36-0.53-0.71-0.83-1.04c-0.29-0.33-0.59-0.66-0.93-0.95c-0.04-0.04-0.45-0.39-0.48-0.3
				c-0.54,1.4-1.25,2.73-2.16,3.92c0.58,0.55,1.16,1.09,1.73,1.64c-0.06-0.07-0.11-0.14-0.17-0.2c0.39,0.46,0.2,0.25,0.12,0.14
				c-0.22-0.29,0.17,0.25,0.03,0.04c-0.04-0.06-0.08-0.11-0.11-0.17c-0.02-0.04-0.05-0.08-0.07-0.11c0.1,0.16,0.11,0.18,0.05,0.08
				c-0.03-0.06-0.07-0.12-0.11-0.18c-0.08-0.14-0.16-0.28-0.23-0.42c-0.03-0.06-0.06-0.12-0.09-0.19c-0.02-0.04-0.04-0.08-0.06-0.13
				c0.03,0.07,0.03,0.07,0-0.01c-0.07-0.15-0.13-0.3-0.19-0.45c-0.12-0.31-0.23-0.62-0.33-0.94c-0.08-0.25-0.32-0.54-0.47-0.74
				c-0.29-0.38-0.61-0.75-0.94-1.1c-0.25-0.27-0.51-0.56-0.82-0.77C300.98,357.16,300.71,356.96,300.77,357.17L300.77,357.17z"/>
		</g>
	</g>
	<g>
		<g>
			<path class="st1" d="M289.47,364.7c0.81,2.37,1.8,4.68,3.01,6.88c0.32,0.59,0.73,1.18,1.35,1.47c0.18,0.08,0.37,0.14,0.56,0.07
				c0.24-0.08,0.3-0.26,0.36-0.5c0.35-1.51,0.52-3.06,0.49-4.61c-0.01-0.87-0.45-1.77-1.14-2.32c-0.25-0.2-0.58-0.46-0.93-0.42
				c-0.27,0.03-0.48,0.26-0.48,0.54c0.03,1.55-0.14,3.1-0.49,4.61c0.76,0.35,1.52,0.69,2.27,1.04c-0.55-1-1.06-2.03-1.53-3.08
				c-0.11-0.26-0.22-0.51-0.33-0.77c-0.06-0.15-0.13-0.29-0.18-0.45c0.03,0.07,0.05,0.13,0.08,0.2c-0.03-0.07-0.06-0.15-0.09-0.22
				c-0.22-0.57-0.43-1.14-0.62-1.71c-0.15-0.45-0.4-0.89-0.72-1.26c-0.22-0.26-0.61-0.63-0.96-0.71
				C289.33,363.27,289.28,364.12,289.47,364.7L289.47,364.7z"/>
		</g>
	</g>
	<g>
		<path class="st1" d="M240.2,434.03c-3.66-7-5.76-16.12-1.07-22.49c1.33,1.83,3.15,3.31,5.23,4.26
			c1.99-12.91,4.23-26.43,12.37-36.81c3.35-4.27,7.55-7.82,11.3-11.76c4.48-4.72,8.31-10.03,11.35-15.73
			c2.4,5.07,4.82,10.2,5.85,15.68c1.04,5.48,0.56,11.44-2.53,16.12c-2.23,3.39-5.78,6.11-6.79,10.02c2.58,0.26,9.21-0.42,11.76-0.85
			c-7.33,5.14-17.07,13-20.26,21.22c3.86-2.44,11.88-1.26,16.2-2.82c-3.85,6.66-14.99,7.37-21,12.3
			c-5.35,4.39-12.86,9.75-16.19,15.73"/>
		<g>
			<path class="st1" d="M240.6,433.89c-3.42-6.62-5.69-15.39-0.99-21.97c-0.3-0.08-0.59-0.16-0.89-0.24
				c1.49,1.98,3.35,3.53,5.59,4.59c0.23,0.11,0.52,0.09,0.57-0.21c1.44-9.35,2.95-18.86,6.87-27.55c2.02-4.48,4.71-8.54,8.05-12.15
				c3.43-3.7,7.26-7.01,10.59-10.81c3.67-4.19,6.84-8.79,9.47-13.69c-0.32-0.12-0.64-0.25-0.96-0.37
				c3.42,7.22,7.07,14.95,6.17,23.17c-0.41,3.73-1.8,7.1-4.16,10.02c-2.08,2.58-4.56,4.97-5.48,8.26c-0.12,0.43,0.27,0.88,0.69,0.91
				c3.88,0.35,8.05-0.23,11.88-0.87c-0.25-0.33-0.49-0.66-0.74-0.98c-4.15,2.92-8.19,6.05-11.83,9.6c-3.45,3.36-6.7,7.19-8.5,11.71
				c-0.18,0.46,0.46,1.11,0.9,0.84c2.42-1.45,5.52-1.52,8.25-1.7c2.61-0.17,5.35-0.2,7.85-1.06c-0.27-0.3-0.54-0.6-0.81-0.9
				c-2.99,4.99-9.48,6.53-14.5,8.63c-2.6,1.09-4.94,2.37-7.13,4.15c-2.73,2.21-5.52,4.36-8.15,6.69c-2.82,2.51-5.52,5.25-7.41,8.55
				c-0.26,0.45,0.67,1.28,0.97,0.75c3.49-6.11,9.62-10.39,14.99-14.72c2.34-1.88,4.75-3.29,7.53-4.45c2.71-1.12,5.49-2.07,8.12-3.37
				c2.6-1.29,5.03-2.95,6.55-5.49c0.24-0.39-0.41-1.03-0.81-0.9c-5.2,1.79-11.44-0.04-16.3,2.87c0.3,0.28,0.6,0.56,0.9,0.84
				c1.83-4.58,5.14-8.43,8.66-11.82c3.56-3.43,7.49-6.47,11.54-9.31c0.48-0.34-0.37-1.05-0.74-0.98c-3.75,0.62-7.85,1.18-11.65,0.84
				c0.23,0.3,0.46,0.61,0.69,0.91c1.01-3.61,3.89-6.08,6.06-8.99c2.16-2.9,3.35-6.33,3.68-9.92c0.75-8.27-2.85-16.01-6.29-23.29
				c-0.13-0.27-0.71-0.84-0.96-0.37c-2.46,4.58-5.38,8.89-8.76,12.84c-3.38,3.95-7.31,7.36-10.86,11.15
				c-6.49,6.9-10.21,15.36-12.45,24.48c-1.29,5.26-2.14,10.61-2.97,15.95c0.19-0.07,0.38-0.14,0.57-0.21
				c-1.93-0.92-3.59-2.21-4.88-3.93c-0.2-0.26-0.62-0.61-0.89-0.24c-4.92,6.88-2.41,16.12,1.15,23
				C240.11,434.77,240.98,434.62,240.6,433.89L240.6,433.89z"/>
		</g>
	</g>
	<g>
		<path class="st2" d="M275.67,368.21c-6.16,25.23-12.68,51.06-34.77,72.56c-1.46,1.42-3.11,2.88-5.82,3.57"/>
		<g>
			<path class="st1" d="M268.78,370.46c-5.24,21.44-11.12,43.03-24.57,60.97c-1.94,2.59-4,5.07-6.2,7.43
				c-1.19,1.28-2.41,2.53-3.67,3.74c-0.16,0.15-0.32,0.3-0.48,0.45c-0.22,0.2-1.15,1.27-0.33,0.34c-0.14,0.16-0.42,0.26-0.58,0.4
				c1.33-1.18,3.48-1.72,5.13-2.17c-1.86,0.51-3.69,1.15-5.44,1.97c-1.26,0.59-2.86,1.36-3.89,2.36c-2.22,2.17,2.47,1.37,3.34,1.13
				c5.29-1.45,10.62-3.65,14.67-7.45c2.31-2.16,4.47-4.5,6.53-6.89c4.19-4.85,7.94-10.03,11.16-15.57
				c5.87-10.08,9.95-21.06,13.18-32.24c1.81-6.27,3.38-12.62,4.93-18.96c0.5-2.03-4.91-0.22-5.62,0.02
				c-1.82,0.61-3.65,1.32-5.31,2.28C270.83,368.72,269.01,369.52,268.78,370.46L268.78,370.46z"/>
		</g>
	</g>
	<g>
		<path class="st3" d="M321.24,397.36"/>
		<g>
			<g>
				<path class="st1" d="M320.21,397c-3.08-1.18-6.47-1.16-9.05,1.1c-2.35,2.06-3.55,4.99-4.47,7.9c-2.24,7.11-3.53,14.65-2.58,22.1
					c0.33,2.56,0.98,4.93,3.3,6.38c2.48,1.56,5.73,1.99,8.5,1.05c6.06-2.04,8.07-8.75,9.18-14.37c0.79-4.01,1.59-8.06,1.62-12.16
					c0.02-3.44-0.22-7.76-2.8-10.32c-0.57-0.57-1.62-0.84-2.4-0.94c-0.32-0.04-1.42-0.1-0.85,0.47c2.06,2.04,2.34,5.53,2.45,8.26
					c0.12,3.01-0.24,6.01-0.74,8.97c-0.85,5.08-1.57,10.84-4.81,15.04c-1.53,1.99-3.74,3.65-6.29,4.01
					c-1.17,0.17-1.62-0.09-2.3-1.11c-0.59-0.88-0.9-1.93-1.09-2.96c-1.12-5.98-0.4-12.35,0.98-18.22c0.74-3.13,1.56-6.43,3.05-9.29
					c0.73-1.4,1.68-2.75,2.92-3.74c0.52-0.42,1.1-0.78,1.72-1.05c0.52-0.22,1.84-0.71,2.42-0.49c0.42,0.16,1.93,0.77,2.31,0.34
					C321.66,397.55,320.46,397.09,320.21,397L320.21,397z"/>
			</g>
		</g>
		<g>
			<g>
				<path class="st1" d="M309.32,402.38c-0.86,4.78-1.33,9.63-2.05,14.43c-0.43,2.85-1.08,5.67-1.29,8.54
					c-0.18,2.52-0.36,6.17,2.25,7.57c2.09,1.12,5,0.57,7.03-0.41c2.54-1.22,4.1-3.65,5.34-6.09c2.79-5.49,3.65-11.68,3.88-17.77
					c0.07-1.78,0.08-3.57,0.08-5.35c0-1.6-0.03-3.17-1.09-4.46c-1.76-2.13-4.72-2.63-7.31-2.22c-0.25,0.04-1.42,0.24-1.44,0.59
					c-0.03,0.38,0.73,0.23,0.95,0.2c2.25-0.36,5.09,0.92,6.04,3.07c0.53,1.19,0.43,2.57,0.42,3.83c0,1.36-0.01,2.71-0.05,4.07
					c-0.15,5.37-0.72,10.82-2.71,15.86c-0.91,2.31-2.07,4.76-3.77,6.6c-1.01,1.1-2.3,1.99-3.86,1.73c-1.4-0.23-2.45-1.15-2.94-2.47
					c-0.88-2.35-0.47-5.29-0.13-7.7c0.32-2.28,0.79-4.53,1.12-6.81c0.67-4.6,1.13-9.23,1.95-13.81
					C311.78,401.61,309.45,401.69,309.32,402.38L309.32,402.38z"/>
			</g>
		</g>
		<g>
			<g>
				<path class="st1" d="M309.86,435.55c1.35,0.21,2.7,0.27,4.06,0.24c0.25-0.01,0.55-0.21,0.68-0.42c0.14-0.23,0.16-0.55,0.06-0.8
					c-0.12-0.29-0.32-0.56-0.6-0.71c-0.29-0.16-0.57-0.22-0.91-0.21c-0.08,0-0.17,0-0.25,0.01c-0.09,0-0.05,0,0.12,0
					c-0.04,0-0.07,0-0.11,0c-0.16,0-0.32,0-0.47,0c-0.3-0.01-0.61-0.02-0.91-0.04c-0.62-0.04-1.23-0.11-1.84-0.2
					c-0.55-0.09-1.17,0.35-1.1,0.95C308.67,435.01,309.24,435.45,309.86,435.55L309.86,435.55z"/>
			</g>
		</g>
		<g>
			<g>
				<path class="st1" d="M308.09,434.25c1.54,0.23,3.11,0.32,4.67,0.24c0.9-0.05,1.76-0.23,2.55-0.66c0.7-0.38,1.43-0.9,1.67-1.69
					c0.11-0.36-0.65-0.16-0.74-0.13c-1.24,0.41-2.51,0.69-3.8,0.84c-0.62,0.07-1.24,0.12-1.86,0.11c-0.42,0-0.95-0.03-1.21-0.41
					c-0.69,0.44-1.39,0.87-2.08,1.31c1.4,0.71,2.97,1.04,4.54,1.02c0.56-0.01,1.15-0.35,1.56-0.71c0.18-0.16,0.66-0.73,0.1-0.73
					c-1.47,0.02-2.9-0.3-4.22-0.97c-0.37-0.19-1.06,0.23-1.34,0.41c-0.18,0.11-0.94,0.6-0.74,0.9c0.32,0.47,0.92,0.58,1.45,0.61
					c0.74,0.05,1.5-0.03,2.23-0.11c1.57-0.16,3.12-0.5,4.63-1.01c-0.25-0.04-0.49-0.09-0.74-0.13c-0.01,0.03-0.05,0.11-0.05,0.11
					c0.1-0.1,0.27-0.16,0.37-0.26c0.05-0.05,0.06,0-0.04-0.01c-0.11-0.01-0.23,0.04-0.34,0.05c-0.53,0.05-1.08,0.05-1.61,0.04
					c-1.12-0.01-2.23-0.1-3.34-0.27c-0.22-0.03-0.56,0.12-0.75,0.2c-0.29,0.13-0.58,0.31-0.82,0.51
					C307.95,433.73,307.57,434.17,308.09,434.25L308.09,434.25z"/>
			</g>
		</g>
	</g>
	<g>
		<g>
			<path class="st1" d="M311.88,337.49c-0.25,2.88-0.49,5.77-0.74,8.65c-0.03,0.4,1.58,0.54,1.83,0.56
				c0.44,0.04,0.89,0.08,1.33,0.04c0.13-0.01,0.55-0.02,0.57-0.2c0.18-1.27,0.39-2.54,0.64-3.81c0.12-0.6,0.24-1.2,0.37-1.8
				c0.05-0.22,0.18-1.42,0.47-1.49c-0.38,0.02-0.75,0.03-1.13,0.05c0.04,0,0.08,0,0.12,0.01c-0.48-0.06-0.95-0.13-1.43-0.19
				c-0.36-0.08,0.1,0.05,0.18,0.07c0.16,0.05,0.32,0.11,0.48,0.16c0.32,0.11,0.63,0.21,0.95,0.32c0.63,0.21,1.27,0.43,1.9,0.64
				c0.81,0.27,1.78,0.37,2.64,0.29c0.12-0.01,0.55-0.02,0.57-0.2c0.02-0.18-0.45-0.29-0.52-0.31c-1.11-0.37-2.22-0.75-3.33-1.12
				c-0.94-0.32-1.93-0.49-2.92-0.48c-0.65,0.01-1.2,0.07-1.43,0.73c-0.36,1.03-0.5,2.18-0.71,3.25c-0.22,1.15-0.41,2.31-0.58,3.48
				c1.24,0.13,2.49,0.27,3.73,0.4c0.25-2.88,0.49-5.77,0.74-8.65c0.03-0.4-1.58-0.54-1.83-0.56
				C313.56,337.31,311.91,337.1,311.88,337.49L311.88,337.49z"/>
		</g>
	</g>
</g>
</svg>
