<?xml version="1.0" encoding="utf-8"?>
<!-- Generator: Adobe Illustrator 26.0.1, SVG Export Plug-In . SVG Version: 6.00 Build 0)  -->
<svg version="1.1" id="Layer_1" xmlns="http://www.w3.org/2000/svg" xmlns:xlink="http://www.w3.org/1999/xlink" x="0px" y="0px"
	 viewBox="0 0 595.28 841.89" style="enable-background:new 0 0 595.28 841.89;" xml:space="preserve">
<style type="text/css">
	.st0{fill:none;stroke:#004B88;stroke-width:77;stroke-miterlimit:10;}
	.st1{fill:#004B88;}
	.st2{stroke:#004B88;stroke-miterlimit:10;}
	.st3{fill:#FFFFFF;}
</style>
<g>
	<g>
		<path class="st0" d="M288.35,364.1"/>
		<g>
			<g>
				<g>
					<path class="st1" d="M365.22,361.36c-2.03,4.9-4.41,9.64-7.18,14.16c-2.24,3.67-4.91,8.59-9.48,9.59
						c-0.1,0.02,1.31,1.67,1.35,1.71c0.55,0.56,1.3,1.55,2.07,1.81c2.71,0.92,5.35,2.09,7.76,3.63c2.24,1.43,3.83,3.1,5.56,5.07
						c3.02,3.44,8.54,9.56,13.57,5.97c0.09-0.07-3.01-3.91-3.53-3.54c-2.18,1.56-5.02,1.22-7.17-0.24c-0.51-0.35-0.31-0.2-0.77-0.71
						c-0.46-0.52-0.9-1.05-1.35-1.57c-1.05-1.22-2.16-2.4-3.32-3.51c-4.05-3.9-8.74-6.8-14.06-8.6c1.14,1.17,2.28,2.35,3.42,3.52
						c4.57-1,7.24-5.92,9.48-9.59c2.76-4.52,5.15-9.26,7.18-14.16c0.17-0.41-1.33-1.7-1.58-1.95
						C367.04,362.82,365.27,361.25,365.22,361.36L365.22,361.36z"/>
				</g>
			</g>
			<g>
				<g>
					<path class="st1" d="M342.47,369.84c0.38-4.43-0.93-11.94-6.89-11.03c-2.77,0.42-4.86,2.1-5.78,4.71
						c-0.92,2.62-1.52,5.4-2.07,8.11c-1.17,5.72-1.97,11.66-2.09,17.51c-0.05,2.46,0.18,5,1.73,7.02c1.47,1.92,3.61,2.7,6,2.48
						c3.28-0.3,6.28-2.06,8.56-4.36c2.33-2.36,4.47-4.93,6.68-7.4c0.76-0.85-0.8-1-1.29-0.94c-1.13,0.13-2.33,0.63-3.1,1.49
						c-1.52,1.7-3.04,3.4-4.56,5.1c-1.05,1.18-2.5,3.29-4.14,3.66c-1.38,0.31-3.09-1.1-3.86-2.3c-1.07-1.69-1.34-3.71-1.32-5.68
						c0.03-4.41,0.6-8.89,1.28-13.24c0.67-4.29,1.42-8.86,3-12.93c0.15-0.38,0.56-0.83,0.63-1.19c0.05-0.26,1.14-0.53-0.58,0.09
						c-1.14,0.41-0.65,0.19-0.08,0.46c0.94,0.45,1.52,1.37,1.95,2.28c1.06,2.27,1.43,4.83,1.22,7.31
						C337.64,372.45,342.36,371.21,342.47,369.84L342.47,369.84z"/>
				</g>
			</g>
		</g>
		<g>
			<g>
				<path class="st1" d="M292.63,340.5c-2.88,17.3-5.84,34.99-13.58,50.9c-1.1,2.26-2.28,4.47-3.56,6.63
					c-1.03,1.74-2.07,4.1-3.95,5.06c-0.94,0.48-1.38,1.67-0.55,2.46c0.91,0.86,2.47,0.63,3.47,0.12c1.92-0.98,3.14-2.66,4.26-4.44
					c1.23-1.94,2.38-3.94,3.45-5.97c2.16-4.09,4.01-8.34,5.61-12.68c3.13-8.48,5.25-17.29,6.98-26.15
					c1.02-5.22,1.9-10.46,2.77-15.71C297.95,338.23,292.99,338.34,292.63,340.5L292.63,340.5z"/>
			</g>
		</g>
		<g>
			<g>
				<path class="st1" d="M349.79,351.97c-1.3,16.6-2.68,33.43-8.2,49.26c-0.77,2.21-1.62,4.39-2.56,6.53
					c-0.77,1.76-1.5,4.1-3.15,5.23c-1.03,0.71-0.73,2.15,0.09,2.87c0.94,0.84,2.43,1,3.48,0.28c1.67-1.15,2.5-2.92,3.34-4.7
					c0.94-1.98,1.8-4,2.58-6.05c1.54-4,2.8-8.11,3.84-12.27c2.11-8.46,3.31-17.12,4.2-25.79c0.51-5,0.91-10.02,1.3-15.03
					C354.91,349.79,350.01,349.17,349.79,351.97L349.79,351.97z"/>
			</g>
		</g>
		<g>
			<g>
				<g>
					<path class="st1" d="M291.5,321.87c0.53,1.75,1.49,3.32,2.67,4.71c0.04,0.04,1.59,1.83,1.73,1.64
						c0.91-1.19,1.63-2.52,2.16-3.92c0.05-0.14-0.2-0.45-0.24-0.52c-0.24-0.36-0.53-0.71-0.83-1.04c-0.29-0.33-0.59-0.66-0.93-0.95
						c-0.04-0.04-0.45-0.39-0.48-0.3c-0.54,1.4-1.25,2.73-2.16,3.92c0.58,0.55,1.16,1.09,1.73,1.64c-0.06-0.07-0.11-0.14-0.17-0.2
						c0.39,0.46,0.2,0.25,0.12,0.14c-0.22-0.29,0.17,0.25,0.03,0.04c-0.04-0.06-0.08-0.11-0.11-0.17c-0.02-0.04-0.05-0.08-0.07-0.11
						c0.1,0.16,0.11,0.18,0.05,0.08c-0.03-0.06-0.07-0.12-0.11-0.18c-0.08-0.14-0.16-0.28-0.23-0.42c-0.03-0.06-0.06-0.12-0.09-0.19
						c-0.02-0.04-0.04-0.08-0.06-0.13c0.03,0.07,0.03,0.07-0.01-0.01c-0.07-0.15-0.13-0.3-0.19-0.45c-0.12-0.31-0.23-0.62-0.33-0.94
						c-0.08-0.25-0.32-0.54-0.47-0.74c-0.29-0.38-0.61-0.75-0.94-1.1c-0.25-0.27-0.51-0.56-0.82-0.77
						C291.71,321.86,291.43,321.66,291.5,321.87L291.5,321.87z"/>
				</g>
			</g>
			<g>
				<g>
					<path class="st1" d="M285.28,315.45c0.3-0.06,0.59-0.08,0.89-0.06c-0.03,0-0.06-0.01-0.09-0.01c0.43,0.05,0.9,0.22,1.23,0.44
						c0.09,0.06,0.17,0.13,0.26,0.19c-0.11-0.09-0.11-0.1-0.02-0.01c0.12,0.11,0.09,0.08-0.07-0.08c0.04,0.04,0.09,0.08,0.13,0.13
						c-0.21-0.21-0.25-0.25-0.12-0.12c-0.46-0.49-0.14-0.15-0.04-0.04c0.28,0.33,0.6,0.67,0.93,0.95c0.04,0.03,0.47,0.37,0.48,0.3
						c0.09-0.6,0.29-1.17,0.83-1.51c0.6-0.38,1.35-0.53,2.02-0.74c0.15-0.05-0.98-1.46-1.07-1.56c-0.29-0.33-0.59-0.66-0.93-0.95
						c-0.1-0.09-0.34-0.35-0.48-0.3c-0.67,0.21-1.42,0.36-2.02,0.74c-0.54,0.34-0.74,0.9-0.83,1.51c0.47,0.42,0.94,0.84,1.41,1.26
						c-0.78-0.9-1.63-1.83-2.64-2.48c-0.72-0.45-1.51-0.65-2.35-0.47c-0.1,0.02,0.29,0.59,0.24,0.52c0.24,0.36,0.53,0.71,0.83,1.04
						c0.29,0.33,0.59,0.66,0.93,0.95C284.9,315.24,285.11,315.48,285.28,315.45L285.28,315.45z"/>
				</g>
			</g>
			<g>
				<g>
					<path class="st1" d="M298.12,311.06c0.07,0.22,0.19,0.42,0.32,0.6c0.36,0.52,0.77,1,1.2,1.46c0.27,0.29,0.65,0.75,1.03,0.91
						c0.08,0.03,0.15,0.05,0.24,0.05c0.38-0.01,0.74-0.39,1-0.62c0.4-0.35,0.77-0.72,1.2-1.03c0.18-0.13,0.37-0.26,0.58-0.33
						c0.07-0.02,0.16-0.05,0.23-0.04c0.06,0,0,0.02,0.05,0.01c0.02,0.01,0.04,0.02,0.07,0.03c-0.32-0.2-0.6-0.45-0.84-0.76
						c0.06,0.07,0.96,1.03,1.08,0.89c0.24-0.29,0.52-0.25,0.82-0.1c0.05,0.02,0.1,0.05,0.14,0.08c0.13,0.07-0.07-0.05,0.01,0
						c0.09,0.06,0.19,0.13,0.28,0.2c0.19,0.14,0.37,0.29,0.56,0.44c0.4,0.32,1.52,1.32,1.87,0.46c0.05-0.13-0.2-0.46-0.24-0.52
						c-0.24-0.36-0.53-0.71-0.83-1.04c-0.29-0.33-0.59-0.66-0.93-0.95c-0.04-0.04-0.45-0.39-0.48-0.3
						c-0.13,0.33-0.35,0.39-0.63,0.27c-0.05-0.02-0.25-0.14-0.18-0.09c0.1,0.06-0.04-0.02-0.06-0.04c-0.05-0.03-0.1-0.07-0.14-0.1
						c-0.19-0.14-0.37-0.29-0.55-0.43c-0.46-0.36-1.55-1.37-2.12-0.68c0.36,0.3,0.72,0.59,1.08,0.89c-0.39-0.42-1-1.24-1.68-1
						c-0.39,0.14-0.73,0.45-1.03,0.71c-0.34,0.3-0.67,0.62-1.03,0.91c-0.14,0.11-0.28,0.22-0.44,0.29c-0.06,0.03-0.13,0.06-0.2,0.06
						c-0.02,0-0.1,0.02-0.03,0.01c-0.01,0-0.02-0.01-0.03-0.01c-0.4-0.16-0.11,0.1,0.87,0.8c0.31,0.37,0.62,0.73,0.94,1.1
						c0.56,0.71,0.46,0.83,0.37,0.54c-0.08-0.26-0.31-0.53-0.47-0.74c-0.29-0.38-0.61-0.75-0.94-1.1c-0.26-0.27-0.52-0.56-0.82-0.77
						C298.34,311.05,298.06,310.85,298.12,311.06L298.12,311.06z"/>
				</g>
			</g>
		</g>
		<g>
			<path class="st2" d="M316.54,359.01"/>
			<g>
				<g>
					<path class="st1" d="M316.68,358.27c-1.89-0.78-4.58-1.46-6.62-1.06c-3.07,0.59-5.21,4.14-6.3,6.77
						c-1.42,3.45-2.32,7.19-3,10.84c-0.73,3.89-1.05,7.86-0.8,11.82c0.2,3.13,0.59,6.33,2.41,8.97c1.82,2.64,4.77,3.59,7.83,2.63
						c6.52-2.05,8.39-9.39,9.54-15.3c0.85-4.34,1.68-8.76,1.46-13.21c-0.19-3.91-0.95-8.16-3.84-11.02
						c-0.51-0.51-0.85-0.25-0.79,0.4c0.07,0.82,0.63,1.79,1.21,2.36c0.86,0.86,0.97,2.25,1.14,3.4c0.26,1.77,0.31,3.56,0.22,5.34
						c-0.16,3.34-0.77,6.63-1.41,9.9c-1.01,5.17-2.4,11.13-7.35,13.95c-1.98,1.13-5.84,2.14-7.53-0.08c-0.45-0.59-0.5-1.53-0.6-2.23
						c-0.25-1.78-0.36-3.57-0.36-5.36c0.02-6.38,1.33-13.01,3.65-18.96c1.04-2.68,2.98-6.11,6.02-6.84
						c1.06-0.26,2.34,0.03,3.38,0.22c1.04,0.19,2.09,0.43,3.07,0.83c0.64,0.26,0.14-1.38,0.09-1.52
						C317.86,359.44,317.39,358.57,316.68,358.27L316.68,358.27z"/>
				</g>
			</g>
			<g>
				<g>
					<path class="st1" d="M304.63,364.04c-0.86,4.78-1.33,9.63-2.05,14.43c-0.43,2.85-1.08,5.67-1.29,8.54
						c-0.18,2.52-0.36,6.17,2.25,7.57c2.09,1.12,5,0.57,7.03-0.41c2.54-1.22,4.1-3.65,5.34-6.09c2.79-5.49,3.65-11.68,3.88-17.77
						c0.07-1.78,0.08-3.57,0.08-5.35c0-1.6-0.03-3.17-1.09-4.46c-1.76-2.13-4.72-2.63-7.31-2.22c-0.25,0.04-1.42,0.24-1.44,0.59
						c-0.03,0.38,0.73,0.23,0.95,0.2c2.25-0.36,5.09,0.92,6.04,3.07c0.53,1.19,0.43,2.57,0.42,3.83c0,1.36-0.01,2.71-0.05,4.07
						c-0.15,5.37-0.72,10.82-2.71,15.86c-0.91,2.31-2.07,4.76-3.77,6.6c-1.01,1.1-2.3,1.99-3.86,1.73c-1.4-0.23-2.45-1.15-2.94-2.47
						c-0.88-2.35-0.47-5.29-0.13-7.7c0.32-2.28,0.79-4.53,1.12-6.81c0.67-4.6,1.13-9.23,1.95-13.81
						C307.09,363.26,304.75,363.35,304.63,364.04L304.63,364.04z"/>
				</g>
			</g>
			<g>
				<g>
					<path class="st1" d="M305.17,397.21c1.35,0.21,2.7,0.27,4.06,0.24c0.25-0.01,0.55-0.21,0.68-0.42c0.14-0.23,0.16-0.55,0.06-0.8
						c-0.12-0.29-0.32-0.56-0.6-0.71c-0.29-0.16-0.57-0.22-0.91-0.21c-0.08,0-0.17,0-0.25,0.01c-0.09,0-0.05,0,0.12,0
						c-0.04,0-0.07,0-0.11,0c-0.16,0-0.32,0-0.47,0c-0.3-0.01-0.61-0.02-0.91-0.04c-0.62-0.04-1.23-0.11-1.84-0.2
						c-0.55-0.09-1.17,0.35-1.1,0.95C303.98,396.67,304.54,397.11,305.17,397.21L305.17,397.21z"/>
				</g>
			</g>
			<g>
				<g>
					<path class="st1" d="M303.4,395.9c1.54,0.23,3.11,0.32,4.67,0.24c0.9-0.05,1.76-0.23,2.55-0.66c0.7-0.38,1.43-0.9,1.67-1.69
						c0.11-0.36-0.65-0.16-0.74-0.13c-1.24,0.41-2.51,0.69-3.8,0.84c-0.62,0.07-1.24,0.12-1.86,0.11c-0.42,0-0.95-0.03-1.21-0.41
						c-0.69,0.44-1.39,0.87-2.08,1.31c1.4,0.71,2.97,1.04,4.54,1.02c0.56-0.01,1.15-0.35,1.56-0.71c0.18-0.16,0.66-0.73,0.1-0.73
						c-1.47,0.02-2.9-0.3-4.22-0.97c-0.37-0.19-1.06,0.23-1.34,0.41c-0.18,0.11-0.94,0.6-0.74,0.9c0.32,0.47,0.92,0.58,1.45,0.61
						c0.74,0.05,1.5-0.03,2.23-0.11c1.57-0.16,3.12-0.5,4.63-1.01c-0.25-0.04-0.49-0.09-0.74-0.13c-0.01,0.03-0.05,0.11-0.05,0.11
						c0.1-0.1,0.27-0.16,0.37-0.26c0.05-0.05,0.06,0-0.04-0.01c-0.11-0.01-0.23,0.04-0.34,0.05c-0.53,0.05-1.08,0.05-1.61,0.04
						c-1.12-0.01-2.23-0.1-3.34-0.27c-0.22-0.03-0.56,0.12-0.75,0.2c-0.29,0.13-0.58,0.31-0.82,0.51
						C303.26,395.38,302.87,395.83,303.4,395.9L303.4,395.9z"/>
				</g>
			</g>
		</g>
	</g>
	<g>
		<polygon class="st3" points="258.26,353.59 232.39,402.28 255.43,379.49 		"/>
		<path class="st1" d="M266.79,354.31c6.06,0.55,11.16,0.13,15.82-0.71c0.74-0.17,1.12,0.64,0.79,0.92
			c-8.46,4.9-15.68,0.9-19.76,19.68c2.2-1.1,8.3-0.71,11.19-1.7c0.57-0.31,1.13,0.57,0.71,0.91c-4.57,0.52-22.81,16.54-23.82,17.1
			c-3.36,4.83-6.47,7.89-12.24,12.93c-8.3,6.2-24.58,8.3-10.45,1.29c9.98-8.3,23.51-29.48,29.23-51.13l-22.66,42.48
			c-1.86-0.16-7.75-15.91-1.78-22.98c0.2-0.23,0.56-0.22,0.77,0c1.53,1.59,3.03,2.79,4.49,3.62c3.72-41.66,25.22-42.82,34.96-63.77
			c0.21-0.43,0.77-0.33,1.06,0.23c13.51,26.29,1.97,33.02-2.6,40.05L266.79,354.31z"/>
	</g>
</g>
</svg>
